%TF.GenerationSoftware,KiCad,Pcbnew,7.0.10*%
%TF.CreationDate,2024-08-23T10:21:53-04:00*%
%TF.ProjectId,mks_wifi_breakout,6d6b735f-7769-4666-995f-627265616b6f,rev?*%
%TF.SameCoordinates,Original*%
%TF.FileFunction,Copper,L2,Bot*%
%TF.FilePolarity,Positive*%
%FSLAX46Y46*%
G04 Gerber Fmt 4.6, Leading zero omitted, Abs format (unit mm)*
G04 Created by KiCad (PCBNEW 7.0.10) date 2024-08-23 10:21:53*
%MOMM*%
%LPD*%
G01*
G04 APERTURE LIST*
G04 Aperture macros list*
%AMRoundRect*
0 Rectangle with rounded corners*
0 $1 Rounding radius*
0 $2 $3 $4 $5 $6 $7 $8 $9 X,Y pos of 4 corners*
0 Add a 4 corners polygon primitive as box body*
4,1,4,$2,$3,$4,$5,$6,$7,$8,$9,$2,$3,0*
0 Add four circle primitives for the rounded corners*
1,1,$1+$1,$2,$3*
1,1,$1+$1,$4,$5*
1,1,$1+$1,$6,$7*
1,1,$1+$1,$8,$9*
0 Add four rect primitives between the rounded corners*
20,1,$1+$1,$2,$3,$4,$5,0*
20,1,$1+$1,$4,$5,$6,$7,0*
20,1,$1+$1,$6,$7,$8,$9,0*
20,1,$1+$1,$8,$9,$2,$3,0*%
G04 Aperture macros list end*
%TA.AperFunction,ComponentPad*%
%ADD10R,1.700000X1.700000*%
%TD*%
%TA.AperFunction,ComponentPad*%
%ADD11O,1.700000X1.700000*%
%TD*%
%TA.AperFunction,SMDPad,CuDef*%
%ADD12RoundRect,0.150000X-0.587500X-0.150000X0.587500X-0.150000X0.587500X0.150000X-0.587500X0.150000X0*%
%TD*%
%TA.AperFunction,ComponentPad*%
%ADD13C,1.700000*%
%TD*%
%TA.AperFunction,SMDPad,CuDef*%
%ADD14RoundRect,0.250000X0.450000X-0.262500X0.450000X0.262500X-0.450000X0.262500X-0.450000X-0.262500X0*%
%TD*%
%TA.AperFunction,SMDPad,CuDef*%
%ADD15RoundRect,0.250000X0.625000X-0.312500X0.625000X0.312500X-0.625000X0.312500X-0.625000X-0.312500X0*%
%TD*%
%TA.AperFunction,ViaPad*%
%ADD16C,0.800000*%
%TD*%
%TA.AperFunction,Conductor*%
%ADD17C,0.250000*%
%TD*%
%TA.AperFunction,Profile*%
%ADD18C,0.100000*%
%TD*%
G04 APERTURE END LIST*
D10*
%TO.P,PA10,1,Pin_1*%
%TO.N,+3V3*%
X136652000Y-74168000D03*
D11*
%TO.P,PA10,2,Pin_2*%
%TO.N,GND*%
X139192000Y-74168000D03*
%TO.P,PA10,3,Pin_3*%
%TO.N,/PA10*%
X141732000Y-74168000D03*
%TD*%
D10*
%TO.P,PA9,1,Pin_1*%
%TO.N,+3V3*%
X136652000Y-76708000D03*
D11*
%TO.P,PA9,2,Pin_2*%
%TO.N,GND*%
X139192000Y-76708000D03*
%TO.P,PA9,3,Pin_3*%
%TO.N,/PA9*%
X141732000Y-76708000D03*
%TD*%
D10*
%TO.P,PC7,1,Pin_1*%
%TO.N,+3V3*%
X136652000Y-71628000D03*
D11*
%TO.P,PC7,2,Pin_2*%
%TO.N,GND*%
X139192000Y-71628000D03*
%TO.P,PC7,3,Pin_3*%
%TO.N,/IO1*%
X141732000Y-71628000D03*
%TD*%
D10*
%TO.P,PA8,1,Pin_1*%
%TO.N,+3V3*%
X136652000Y-79248000D03*
D11*
%TO.P,PA8,2,Pin_2*%
%TO.N,GND*%
X139192000Y-79248000D03*
%TO.P,PA8,3,Pin_3*%
%TO.N,/IO0*%
X141732000Y-79248000D03*
%TD*%
D10*
%TO.P,PA5,1,Pin_1*%
%TO.N,+3V3*%
X136652000Y-81788000D03*
D11*
%TO.P,PA5,2,Pin_2*%
%TO.N,GND*%
X139192000Y-81788000D03*
%TO.P,PA5,3,Pin_3*%
%TO.N,/PA5*%
X141732000Y-81788000D03*
%TD*%
D12*
%TO.P,Q1,1,G*%
%TO.N,/PA9*%
X138938000Y-90678000D03*
%TO.P,Q1,2,S*%
%TO.N,+3V3*%
X138938000Y-88778000D03*
%TO.P,Q1,3,D*%
%TO.N,Net-(BZ1-+)*%
X140813000Y-89728000D03*
%TD*%
D13*
%TO.P,BLACK,1,Pin_1*%
%TO.N,/PA5*%
X132080000Y-71850000D03*
D11*
%TO.P,BLACK,2,Pin_2*%
%TO.N,unconnected-(J2-Pin_2-Pad2)*%
X132080000Y-74390000D03*
%TO.P,BLACK,3,Pin_3*%
%TO.N,unconnected-(J2-Pin_3-Pad3)*%
X132080000Y-76930000D03*
%TO.P,BLACK,4,Pin_4*%
%TO.N,unconnected-(J2-Pin_4-Pad4)*%
X132080000Y-79470000D03*
%TO.P,BLACK,5,Pin_5*%
%TO.N,unconnected-(J2-Pin_5-Pad5)*%
X132080000Y-82010000D03*
%TO.P,BLACK,6,Pin_6*%
%TO.N,unconnected-(J2-Pin_6-Pad6)*%
X132080000Y-84550000D03*
%TO.P,BLACK,7,Pin_7*%
%TO.N,unconnected-(J2-Pin_7-Pad7)*%
X132080000Y-87090000D03*
%TO.P,BLACK,8,Pin_8*%
%TO.N,+3V3*%
X132080000Y-89630000D03*
%TD*%
D14*
%TO.P,R2,1*%
%TO.N,/PA9*%
X136652000Y-90574500D03*
%TO.P,R2,2*%
%TO.N,+3V3*%
X136652000Y-88749500D03*
%TD*%
D15*
%TO.P,R1,1*%
%TO.N,GND*%
X147574000Y-87314500D03*
%TO.P,R1,2*%
%TO.N,Net-(BZ1--)*%
X147574000Y-84389500D03*
%TD*%
D13*
%TO.P,GREEN,1,Pin_1*%
%TO.N,/PA10*%
X151680000Y-71850000D03*
D11*
%TO.P,GREEN,2,Pin_2*%
%TO.N,/PA9*%
X151680000Y-74390000D03*
%TO.P,GREEN,3,Pin_3*%
%TO.N,unconnected-(J1-Pin_3-Pad3)*%
X151680000Y-76930000D03*
%TO.P,GREEN,4,Pin_4*%
%TO.N,/IO1*%
X151680000Y-79470000D03*
%TO.P,GREEN,5,Pin_5*%
%TO.N,/IO0*%
X151680000Y-82010000D03*
%TO.P,GREEN,6,Pin_6*%
%TO.N,unconnected-(J1-Pin_6-Pad6)*%
X151680000Y-84550000D03*
%TO.P,GREEN,7,Pin_7*%
%TO.N,unconnected-(J1-Pin_7-Pad7)*%
X151680000Y-87090000D03*
%TO.P,GREEN,8,Pin_8*%
%TO.N,GND*%
X151680000Y-89630000D03*
%TD*%
D16*
%TO.N,Net-(BZ1-+)*%
X145542000Y-90170000D03*
%TO.N,Net-(BZ1--)*%
X145288000Y-85344000D03*
%TO.N,/PA9*%
X141224000Y-90678000D03*
%TD*%
D17*
%TO.N,Net-(BZ1-+)*%
X140813000Y-89728000D02*
X145100000Y-89728000D01*
X145100000Y-89728000D02*
X145542000Y-90170000D01*
%TO.N,Net-(BZ1--)*%
X147574000Y-84389500D02*
X146242500Y-84389500D01*
X146242500Y-84389500D02*
X145288000Y-85344000D01*
%TO.N,/PA10*%
X149362000Y-74168000D02*
X151680000Y-71850000D01*
X141732000Y-74168000D02*
X149362000Y-74168000D01*
%TO.N,/PA9*%
X136652000Y-90574500D02*
X137564500Y-90574500D01*
X137564500Y-90574500D02*
X137668000Y-90678000D01*
X149362000Y-76708000D02*
X151680000Y-74390000D01*
X141224000Y-90678000D02*
X138938000Y-90678000D01*
X137668000Y-90678000D02*
X138938000Y-90678000D01*
X141732000Y-76708000D02*
X149362000Y-76708000D01*
%TO.N,/IO0*%
X141732000Y-79248000D02*
X144494000Y-82010000D01*
X144494000Y-82010000D02*
X151680000Y-82010000D01*
%TO.N,GND*%
X139192000Y-81788000D02*
X144718500Y-87314500D01*
X147574000Y-87314500D02*
X147574000Y-88646000D01*
X147574000Y-88646000D02*
X148558000Y-89630000D01*
X144718500Y-87314500D02*
X147574000Y-87314500D01*
X148558000Y-89630000D02*
X151680000Y-89630000D01*
%TO.N,+3V3*%
X136652000Y-88749500D02*
X132960500Y-88749500D01*
X136680500Y-88778000D02*
X136652000Y-88749500D01*
X136652000Y-81788000D02*
X136652000Y-88749500D01*
X132960500Y-88749500D02*
X132080000Y-89630000D01*
X138938000Y-88778000D02*
X136680500Y-88778000D01*
%TD*%
%TA.AperFunction,Conductor*%
%TO.N,GND*%
G36*
X153742539Y-69620185D02*
G01*
X153788294Y-69672989D01*
X153799500Y-69724500D01*
X153799500Y-91675500D01*
X153779815Y-91742539D01*
X153727011Y-91788294D01*
X153675500Y-91799500D01*
X141458704Y-91799500D01*
X141391665Y-91779815D01*
X141345910Y-91727011D01*
X141335966Y-91657853D01*
X141364991Y-91594297D01*
X141423769Y-91556523D01*
X141432923Y-91554210D01*
X141458398Y-91548794D01*
X141503803Y-91539144D01*
X141676730Y-91462151D01*
X141829871Y-91350888D01*
X141956533Y-91210216D01*
X142051179Y-91046284D01*
X142109674Y-90866256D01*
X142129460Y-90678000D01*
X142109749Y-90490459D01*
X142122319Y-90421731D01*
X142170051Y-90370708D01*
X142233070Y-90353500D01*
X144564689Y-90353500D01*
X144631728Y-90373185D01*
X144677483Y-90425989D01*
X144682620Y-90439181D01*
X144714819Y-90538280D01*
X144714821Y-90538284D01*
X144809467Y-90702216D01*
X144900754Y-90803600D01*
X144936129Y-90842888D01*
X145089265Y-90954148D01*
X145089270Y-90954151D01*
X145262192Y-91031142D01*
X145262197Y-91031144D01*
X145447354Y-91070500D01*
X145447355Y-91070500D01*
X145636644Y-91070500D01*
X145636646Y-91070500D01*
X145821803Y-91031144D01*
X145994730Y-90954151D01*
X146147871Y-90842888D01*
X146274533Y-90702216D01*
X146369179Y-90538284D01*
X146427674Y-90358256D01*
X146447460Y-90170000D01*
X146427674Y-89981744D01*
X146369179Y-89801716D01*
X146274533Y-89637784D01*
X146147871Y-89497112D01*
X146125223Y-89480657D01*
X145994734Y-89385851D01*
X145994729Y-89385848D01*
X145821807Y-89308857D01*
X145821802Y-89308855D01*
X145676001Y-89277865D01*
X145636646Y-89269500D01*
X145636645Y-89269500D01*
X145574585Y-89269500D01*
X145507546Y-89249815D01*
X145489700Y-89235891D01*
X145470584Y-89217940D01*
X145470582Y-89217938D01*
X145453029Y-89208288D01*
X145436763Y-89197604D01*
X145420932Y-89185324D01*
X145380849Y-89167978D01*
X145370363Y-89162841D01*
X145332094Y-89141803D01*
X145332092Y-89141802D01*
X145312693Y-89136822D01*
X145294281Y-89130518D01*
X145275898Y-89122562D01*
X145275892Y-89122560D01*
X145232760Y-89115729D01*
X145221322Y-89113361D01*
X145179020Y-89102500D01*
X145179019Y-89102500D01*
X145158984Y-89102500D01*
X145139586Y-89100973D01*
X145132162Y-89099797D01*
X145119805Y-89097840D01*
X145119804Y-89097840D01*
X145076325Y-89101950D01*
X145064656Y-89102500D01*
X141896309Y-89102500D01*
X141829270Y-89082815D01*
X141808628Y-89066181D01*
X141802370Y-89059923D01*
X141802362Y-89059917D01*
X141660896Y-88976255D01*
X141660893Y-88976254D01*
X141503073Y-88930402D01*
X141503067Y-88930401D01*
X141466201Y-88927500D01*
X141466194Y-88927500D01*
X140300000Y-88927500D01*
X140232961Y-88907815D01*
X140187206Y-88855011D01*
X140176000Y-88803500D01*
X140176000Y-88562313D01*
X140175999Y-88562298D01*
X140173098Y-88525432D01*
X140173097Y-88525426D01*
X140127245Y-88367606D01*
X140127244Y-88367603D01*
X140127244Y-88367602D01*
X140043581Y-88226135D01*
X140043579Y-88226133D01*
X140043576Y-88226129D01*
X139927370Y-88109923D01*
X139927362Y-88109917D01*
X139785896Y-88026255D01*
X139785893Y-88026254D01*
X139628073Y-87980402D01*
X139628067Y-87980401D01*
X139591201Y-87977500D01*
X139591194Y-87977500D01*
X138284806Y-87977500D01*
X138284798Y-87977500D01*
X138247932Y-87980401D01*
X138247926Y-87980402D01*
X138090106Y-88026254D01*
X138090103Y-88026255D01*
X137948637Y-88109917D01*
X137948629Y-88109923D01*
X137942372Y-88116181D01*
X137881049Y-88149666D01*
X137854691Y-88152500D01*
X137846667Y-88152500D01*
X137779628Y-88132815D01*
X137741128Y-88093597D01*
X137723549Y-88065097D01*
X137694712Y-88018344D01*
X137570656Y-87894288D01*
X137421334Y-87802186D01*
X137362493Y-87782688D01*
X137305051Y-87742916D01*
X137278228Y-87678400D01*
X137277500Y-87664983D01*
X137277500Y-87564500D01*
X146199001Y-87564500D01*
X146199001Y-87676986D01*
X146209494Y-87779697D01*
X146264641Y-87946119D01*
X146264643Y-87946124D01*
X146356684Y-88095345D01*
X146480654Y-88219315D01*
X146629875Y-88311356D01*
X146629880Y-88311358D01*
X146796302Y-88366505D01*
X146796309Y-88366506D01*
X146899019Y-88376999D01*
X147323999Y-88376999D01*
X147324000Y-88376998D01*
X147324000Y-87564500D01*
X147824000Y-87564500D01*
X147824000Y-88376999D01*
X148248972Y-88376999D01*
X148248986Y-88376998D01*
X148351697Y-88366505D01*
X148518119Y-88311358D01*
X148518124Y-88311356D01*
X148667345Y-88219315D01*
X148791315Y-88095345D01*
X148883356Y-87946124D01*
X148883358Y-87946119D01*
X148938505Y-87779697D01*
X148938506Y-87779690D01*
X148948999Y-87676986D01*
X148949000Y-87676973D01*
X148949000Y-87564500D01*
X147824000Y-87564500D01*
X147324000Y-87564500D01*
X146199001Y-87564500D01*
X137277500Y-87564500D01*
X137277500Y-87064500D01*
X146199000Y-87064500D01*
X147324000Y-87064500D01*
X147324000Y-86252000D01*
X147824000Y-86252000D01*
X147824000Y-87064500D01*
X148948999Y-87064500D01*
X148948999Y-86952028D01*
X148948998Y-86952013D01*
X148938505Y-86849302D01*
X148883358Y-86682880D01*
X148883356Y-86682875D01*
X148791315Y-86533654D01*
X148667345Y-86409684D01*
X148518124Y-86317643D01*
X148518119Y-86317641D01*
X148351697Y-86262494D01*
X148351690Y-86262493D01*
X148248986Y-86252000D01*
X147824000Y-86252000D01*
X147324000Y-86252000D01*
X146899028Y-86252000D01*
X146899012Y-86252001D01*
X146796302Y-86262494D01*
X146629880Y-86317641D01*
X146629875Y-86317643D01*
X146480654Y-86409684D01*
X146356684Y-86533654D01*
X146264643Y-86682875D01*
X146264641Y-86682880D01*
X146209494Y-86849302D01*
X146209493Y-86849309D01*
X146199000Y-86952013D01*
X146199000Y-87064500D01*
X137277500Y-87064500D01*
X137277500Y-85344000D01*
X144382540Y-85344000D01*
X144402326Y-85532256D01*
X144402327Y-85532259D01*
X144460818Y-85712277D01*
X144460821Y-85712284D01*
X144555467Y-85876216D01*
X144596309Y-85921575D01*
X144682129Y-86016888D01*
X144835265Y-86128148D01*
X144835270Y-86128151D01*
X145008192Y-86205142D01*
X145008197Y-86205144D01*
X145193354Y-86244500D01*
X145193355Y-86244500D01*
X145382644Y-86244500D01*
X145382646Y-86244500D01*
X145567803Y-86205144D01*
X145740730Y-86128151D01*
X145893871Y-86016888D01*
X146020533Y-85876216D01*
X146115179Y-85712284D01*
X146173674Y-85532256D01*
X146191321Y-85364344D01*
X146217904Y-85299734D01*
X146226952Y-85289637D01*
X146263431Y-85253159D01*
X146324755Y-85219674D01*
X146394446Y-85224660D01*
X146438792Y-85253160D01*
X146480344Y-85294712D01*
X146629666Y-85386814D01*
X146796203Y-85441999D01*
X146898991Y-85452500D01*
X148249008Y-85452499D01*
X148351797Y-85441999D01*
X148518334Y-85386814D01*
X148667656Y-85294712D01*
X148791712Y-85170656D01*
X148883814Y-85021334D01*
X148938999Y-84854797D01*
X148949500Y-84752009D01*
X148949499Y-84026992D01*
X148938999Y-83924203D01*
X148883814Y-83757666D01*
X148791712Y-83608344D01*
X148667656Y-83484288D01*
X148518334Y-83392186D01*
X148351797Y-83337001D01*
X148351795Y-83337000D01*
X148249010Y-83326500D01*
X146898998Y-83326500D01*
X146898981Y-83326501D01*
X146796203Y-83337000D01*
X146796200Y-83337001D01*
X146629668Y-83392185D01*
X146629663Y-83392187D01*
X146480342Y-83484289D01*
X146356289Y-83608342D01*
X146296249Y-83705683D01*
X146244301Y-83752408D01*
X146206240Y-83763610D01*
X146203151Y-83764000D01*
X146203150Y-83764000D01*
X146200601Y-83764321D01*
X146199166Y-83764503D01*
X146187533Y-83765418D01*
X146143873Y-83766790D01*
X146124629Y-83772381D01*
X146105579Y-83776325D01*
X146085711Y-83778834D01*
X146085710Y-83778834D01*
X146045099Y-83794913D01*
X146034054Y-83798694D01*
X145992114Y-83810879D01*
X145992110Y-83810881D01*
X145974866Y-83821079D01*
X145957405Y-83829633D01*
X145938774Y-83837010D01*
X145938762Y-83837017D01*
X145903433Y-83862685D01*
X145893673Y-83869096D01*
X145856080Y-83891329D01*
X145841914Y-83905495D01*
X145827124Y-83918127D01*
X145810914Y-83929904D01*
X145810911Y-83929907D01*
X145783073Y-83963558D01*
X145775211Y-83972197D01*
X145340228Y-84407181D01*
X145278905Y-84440666D01*
X145252547Y-84443500D01*
X145193354Y-84443500D01*
X145160897Y-84450398D01*
X145008197Y-84482855D01*
X145008192Y-84482857D01*
X144835270Y-84559848D01*
X144835265Y-84559851D01*
X144682129Y-84671111D01*
X144555466Y-84811785D01*
X144460821Y-84975715D01*
X144460818Y-84975722D01*
X144402327Y-85155740D01*
X144402326Y-85155744D01*
X144382540Y-85344000D01*
X137277500Y-85344000D01*
X137277500Y-83262499D01*
X137297185Y-83195460D01*
X137349989Y-83149705D01*
X137401500Y-83138499D01*
X137549871Y-83138499D01*
X137549872Y-83138499D01*
X137609483Y-83132091D01*
X137744331Y-83081796D01*
X137859546Y-82995546D01*
X137945796Y-82880331D01*
X137995002Y-82748401D01*
X138036872Y-82692468D01*
X138102337Y-82668050D01*
X138170610Y-82682901D01*
X138198865Y-82704053D01*
X138320917Y-82826105D01*
X138514421Y-82961600D01*
X138728507Y-83061429D01*
X138728516Y-83061433D01*
X138942000Y-83118634D01*
X138942000Y-82223501D01*
X139049685Y-82272680D01*
X139156237Y-82288000D01*
X139227763Y-82288000D01*
X139334315Y-82272680D01*
X139442000Y-82223501D01*
X139442000Y-83118633D01*
X139655483Y-83061433D01*
X139655492Y-83061429D01*
X139869578Y-82961600D01*
X140063082Y-82826105D01*
X140230105Y-82659082D01*
X140360119Y-82473405D01*
X140414696Y-82429781D01*
X140484195Y-82422588D01*
X140546549Y-82454110D01*
X140563269Y-82473405D01*
X140693505Y-82659401D01*
X140860599Y-82826495D01*
X140939004Y-82881395D01*
X141054165Y-82962032D01*
X141054167Y-82962033D01*
X141054170Y-82962035D01*
X141268337Y-83061903D01*
X141496592Y-83123063D01*
X141673034Y-83138500D01*
X141731999Y-83143659D01*
X141732000Y-83143659D01*
X141732001Y-83143659D01*
X141790966Y-83138500D01*
X141967408Y-83123063D01*
X142195663Y-83061903D01*
X142409830Y-82962035D01*
X142603401Y-82826495D01*
X142770495Y-82659401D01*
X142906035Y-82465830D01*
X143005903Y-82251663D01*
X143067063Y-82023408D01*
X143087659Y-81788000D01*
X143087659Y-81787612D01*
X143087707Y-81787446D01*
X143088131Y-81782606D01*
X143089103Y-81782691D01*
X143107344Y-81720573D01*
X143160148Y-81674818D01*
X143229306Y-81664874D01*
X143292862Y-81693899D01*
X143299340Y-81699931D01*
X143993197Y-82393788D01*
X144003022Y-82406051D01*
X144003243Y-82405869D01*
X144008211Y-82411874D01*
X144057222Y-82457899D01*
X144060021Y-82460612D01*
X144079522Y-82480114D01*
X144079526Y-82480117D01*
X144079529Y-82480120D01*
X144082702Y-82482581D01*
X144091574Y-82490159D01*
X144123418Y-82520062D01*
X144140976Y-82529714D01*
X144157233Y-82540393D01*
X144173064Y-82552673D01*
X144202803Y-82565542D01*
X144213152Y-82570021D01*
X144223641Y-82575160D01*
X144247457Y-82588252D01*
X144261908Y-82596197D01*
X144274523Y-82599435D01*
X144281305Y-82601177D01*
X144299719Y-82607481D01*
X144318104Y-82615438D01*
X144361261Y-82622273D01*
X144372656Y-82624632D01*
X144414981Y-82635500D01*
X144435016Y-82635500D01*
X144454413Y-82637026D01*
X144474196Y-82640160D01*
X144517675Y-82636050D01*
X144529344Y-82635500D01*
X150404773Y-82635500D01*
X150471812Y-82655185D01*
X150506348Y-82688377D01*
X150641501Y-82881396D01*
X150641506Y-82881402D01*
X150808597Y-83048493D01*
X150808603Y-83048498D01*
X150994158Y-83178425D01*
X151037783Y-83233002D01*
X151044977Y-83302500D01*
X151013454Y-83364855D01*
X150994158Y-83381575D01*
X150808597Y-83511505D01*
X150641505Y-83678597D01*
X150505965Y-83872169D01*
X150505964Y-83872171D01*
X150406098Y-84086335D01*
X150406094Y-84086344D01*
X150344938Y-84314586D01*
X150344936Y-84314596D01*
X150324341Y-84549999D01*
X150324341Y-84550000D01*
X150344936Y-84785403D01*
X150344938Y-84785413D01*
X150406094Y-85013655D01*
X150406096Y-85013659D01*
X150406097Y-85013663D01*
X150472349Y-85155740D01*
X150505965Y-85227830D01*
X150505967Y-85227834D01*
X150587308Y-85344000D01*
X150617285Y-85386812D01*
X150641501Y-85421395D01*
X150641506Y-85421402D01*
X150808597Y-85588493D01*
X150808603Y-85588498D01*
X150994158Y-85718425D01*
X151037783Y-85773002D01*
X151044977Y-85842500D01*
X151013454Y-85904855D01*
X150994158Y-85921575D01*
X150808597Y-86051505D01*
X150641505Y-86218597D01*
X150505965Y-86412169D01*
X150505964Y-86412171D01*
X150406098Y-86626335D01*
X150406094Y-86626344D01*
X150344938Y-86854586D01*
X150344936Y-86854596D01*
X150324341Y-87089999D01*
X150324341Y-87090000D01*
X150344936Y-87325403D01*
X150344938Y-87325413D01*
X150406094Y-87553655D01*
X150406096Y-87553659D01*
X150406097Y-87553663D01*
X150458007Y-87664983D01*
X150505965Y-87767830D01*
X150505967Y-87767834D01*
X150614281Y-87922521D01*
X150630804Y-87946119D01*
X150641501Y-87961395D01*
X150641506Y-87961402D01*
X150808597Y-88128493D01*
X150808603Y-88128498D01*
X150994594Y-88258730D01*
X151038219Y-88313307D01*
X151045413Y-88382805D01*
X151013890Y-88445160D01*
X150994595Y-88461880D01*
X150808922Y-88591890D01*
X150808920Y-88591891D01*
X150641891Y-88758920D01*
X150641886Y-88758926D01*
X150506400Y-88952420D01*
X150506399Y-88952422D01*
X150406570Y-89166507D01*
X150406567Y-89166513D01*
X150349364Y-89379999D01*
X150349364Y-89380000D01*
X151246314Y-89380000D01*
X151220507Y-89420156D01*
X151180000Y-89558111D01*
X151180000Y-89701889D01*
X151220507Y-89839844D01*
X151246314Y-89880000D01*
X150349364Y-89880000D01*
X150406567Y-90093486D01*
X150406570Y-90093492D01*
X150506399Y-90307578D01*
X150641894Y-90501082D01*
X150808917Y-90668105D01*
X151002421Y-90803600D01*
X151216507Y-90903429D01*
X151216516Y-90903433D01*
X151430000Y-90960634D01*
X151430000Y-90065501D01*
X151537685Y-90114680D01*
X151644237Y-90130000D01*
X151715763Y-90130000D01*
X151822315Y-90114680D01*
X151930000Y-90065501D01*
X151930000Y-90960633D01*
X152143483Y-90903433D01*
X152143492Y-90903429D01*
X152357578Y-90803600D01*
X152551082Y-90668105D01*
X152718105Y-90501082D01*
X152853600Y-90307578D01*
X152953429Y-90093492D01*
X152953432Y-90093486D01*
X153010636Y-89880000D01*
X152113686Y-89880000D01*
X152139493Y-89839844D01*
X152180000Y-89701889D01*
X152180000Y-89558111D01*
X152139493Y-89420156D01*
X152113686Y-89380000D01*
X153010636Y-89380000D01*
X153010635Y-89379999D01*
X152953432Y-89166513D01*
X152953429Y-89166507D01*
X152853600Y-88952422D01*
X152853599Y-88952420D01*
X152718113Y-88758926D01*
X152718108Y-88758920D01*
X152551078Y-88591890D01*
X152365405Y-88461879D01*
X152321780Y-88407302D01*
X152314588Y-88337804D01*
X152346110Y-88275449D01*
X152365406Y-88258730D01*
X152365842Y-88258425D01*
X152551401Y-88128495D01*
X152718495Y-87961401D01*
X152854035Y-87767830D01*
X152953903Y-87553663D01*
X153015063Y-87325408D01*
X153035659Y-87090000D01*
X153015063Y-86854592D01*
X152953903Y-86626337D01*
X152854035Y-86412171D01*
X152749231Y-86262494D01*
X152718494Y-86218597D01*
X152551402Y-86051506D01*
X152551396Y-86051501D01*
X152365842Y-85921575D01*
X152322217Y-85866998D01*
X152315023Y-85797500D01*
X152346546Y-85735145D01*
X152365842Y-85718425D01*
X152388026Y-85702891D01*
X152551401Y-85588495D01*
X152718495Y-85421401D01*
X152854035Y-85227830D01*
X152953903Y-85013663D01*
X153015063Y-84785408D01*
X153035659Y-84550000D01*
X153015063Y-84314592D01*
X152953903Y-84086337D01*
X152854035Y-83872171D01*
X152849800Y-83866122D01*
X152718494Y-83678597D01*
X152551402Y-83511506D01*
X152551396Y-83511501D01*
X152365842Y-83381575D01*
X152322217Y-83326998D01*
X152315023Y-83257500D01*
X152346546Y-83195145D01*
X152365842Y-83178425D01*
X152422862Y-83138499D01*
X152551401Y-83048495D01*
X152718495Y-82881401D01*
X152854035Y-82687830D01*
X152953903Y-82473663D01*
X153015063Y-82245408D01*
X153035659Y-82010000D01*
X153034595Y-81997844D01*
X153031539Y-81962918D01*
X153015063Y-81774592D01*
X152953903Y-81546337D01*
X152854035Y-81332171D01*
X152853652Y-81331623D01*
X152718494Y-81138597D01*
X152551402Y-80971506D01*
X152551396Y-80971501D01*
X152365842Y-80841575D01*
X152322217Y-80786998D01*
X152315023Y-80717500D01*
X152346546Y-80655145D01*
X152365842Y-80638425D01*
X152470706Y-80564998D01*
X152551401Y-80508495D01*
X152718495Y-80341401D01*
X152854035Y-80147830D01*
X152953903Y-79933663D01*
X153015063Y-79705408D01*
X153035659Y-79470000D01*
X153034595Y-79457844D01*
X153031539Y-79422918D01*
X153015063Y-79234592D01*
X152955579Y-79012592D01*
X152953905Y-79006344D01*
X152953904Y-79006343D01*
X152953903Y-79006337D01*
X152854035Y-78792171D01*
X152848555Y-78784344D01*
X152718494Y-78598597D01*
X152551402Y-78431506D01*
X152551396Y-78431501D01*
X152365842Y-78301575D01*
X152322217Y-78246998D01*
X152315023Y-78177500D01*
X152346546Y-78115145D01*
X152365842Y-78098425D01*
X152470706Y-78024998D01*
X152551401Y-77968495D01*
X152718495Y-77801401D01*
X152854035Y-77607830D01*
X152953903Y-77393663D01*
X153015063Y-77165408D01*
X153035659Y-76930000D01*
X153034595Y-76917844D01*
X153025024Y-76808444D01*
X153015063Y-76694592D01*
X152953903Y-76466337D01*
X152854035Y-76252171D01*
X152833834Y-76223320D01*
X152718494Y-76058597D01*
X152551402Y-75891506D01*
X152551396Y-75891501D01*
X152365842Y-75761575D01*
X152322217Y-75706998D01*
X152315023Y-75637500D01*
X152346546Y-75575145D01*
X152365842Y-75558425D01*
X152470706Y-75484998D01*
X152551401Y-75428495D01*
X152718495Y-75261401D01*
X152854035Y-75067830D01*
X152953903Y-74853663D01*
X153015063Y-74625408D01*
X153035659Y-74390000D01*
X153034595Y-74377844D01*
X153025024Y-74268444D01*
X153015063Y-74154592D01*
X152953903Y-73926337D01*
X152854035Y-73712171D01*
X152833834Y-73683320D01*
X152718494Y-73518597D01*
X152551402Y-73351506D01*
X152551396Y-73351501D01*
X152365842Y-73221575D01*
X152322217Y-73166998D01*
X152315023Y-73097500D01*
X152346546Y-73035145D01*
X152365842Y-73018425D01*
X152470706Y-72944998D01*
X152551401Y-72888495D01*
X152718495Y-72721401D01*
X152854035Y-72527830D01*
X152953903Y-72313663D01*
X153015063Y-72085408D01*
X153035659Y-71850000D01*
X153034595Y-71837844D01*
X153031539Y-71802918D01*
X153015063Y-71614592D01*
X152955579Y-71392592D01*
X152953905Y-71386344D01*
X152953904Y-71386343D01*
X152953903Y-71386337D01*
X152854035Y-71172171D01*
X152848555Y-71164344D01*
X152718494Y-70978597D01*
X152551402Y-70811506D01*
X152551395Y-70811501D01*
X152357834Y-70675967D01*
X152357830Y-70675965D01*
X152339887Y-70667598D01*
X152143663Y-70576097D01*
X152143659Y-70576096D01*
X152143655Y-70576094D01*
X151915413Y-70514938D01*
X151915403Y-70514936D01*
X151680001Y-70494341D01*
X151679999Y-70494341D01*
X151444596Y-70514936D01*
X151444586Y-70514938D01*
X151216344Y-70576094D01*
X151216335Y-70576098D01*
X151002171Y-70675964D01*
X151002169Y-70675965D01*
X150808597Y-70811505D01*
X150641505Y-70978597D01*
X150505965Y-71172169D01*
X150505964Y-71172171D01*
X150406098Y-71386335D01*
X150406094Y-71386344D01*
X150344938Y-71614586D01*
X150344936Y-71614596D01*
X150324341Y-71849999D01*
X150324341Y-71850000D01*
X150344936Y-72085403D01*
X150344938Y-72085413D01*
X150371856Y-72185872D01*
X150370193Y-72255722D01*
X150339762Y-72305646D01*
X149139228Y-73506181D01*
X149077905Y-73539666D01*
X149051547Y-73542500D01*
X143007227Y-73542500D01*
X142940188Y-73522815D01*
X142905652Y-73489623D01*
X142770494Y-73296597D01*
X142603402Y-73129506D01*
X142603396Y-73129501D01*
X142417842Y-72999575D01*
X142374217Y-72944998D01*
X142367023Y-72875500D01*
X142398546Y-72813145D01*
X142417842Y-72796425D01*
X142440026Y-72780891D01*
X142603401Y-72666495D01*
X142770495Y-72499401D01*
X142906035Y-72305830D01*
X143005903Y-72091663D01*
X143067063Y-71863408D01*
X143087659Y-71628000D01*
X143067063Y-71392592D01*
X143005903Y-71164337D01*
X142906035Y-70950171D01*
X142900731Y-70942595D01*
X142770494Y-70756597D01*
X142603402Y-70589506D01*
X142603395Y-70589501D01*
X142409834Y-70453967D01*
X142409830Y-70453965D01*
X142409828Y-70453964D01*
X142195663Y-70354097D01*
X142195659Y-70354096D01*
X142195655Y-70354094D01*
X141967413Y-70292938D01*
X141967403Y-70292936D01*
X141732001Y-70272341D01*
X141731999Y-70272341D01*
X141496596Y-70292936D01*
X141496586Y-70292938D01*
X141268344Y-70354094D01*
X141268335Y-70354098D01*
X141054171Y-70453964D01*
X141054169Y-70453965D01*
X140860597Y-70589505D01*
X140693508Y-70756594D01*
X140563269Y-70942595D01*
X140508692Y-70986219D01*
X140439193Y-70993412D01*
X140376839Y-70961890D01*
X140360119Y-70942594D01*
X140230113Y-70756926D01*
X140230108Y-70756920D01*
X140063082Y-70589894D01*
X139869578Y-70454399D01*
X139655492Y-70354570D01*
X139655486Y-70354567D01*
X139442000Y-70297364D01*
X139442000Y-71192498D01*
X139334315Y-71143320D01*
X139227763Y-71128000D01*
X139156237Y-71128000D01*
X139049685Y-71143320D01*
X138942000Y-71192498D01*
X138942000Y-70297364D01*
X138941999Y-70297364D01*
X138728513Y-70354567D01*
X138728507Y-70354570D01*
X138514422Y-70454399D01*
X138514420Y-70454400D01*
X138320926Y-70589886D01*
X138198865Y-70711947D01*
X138137542Y-70745431D01*
X138067850Y-70740447D01*
X138011917Y-70698575D01*
X137995002Y-70667598D01*
X137945797Y-70535671D01*
X137945793Y-70535664D01*
X137859547Y-70420455D01*
X137859544Y-70420452D01*
X137744335Y-70334206D01*
X137744328Y-70334202D01*
X137609482Y-70283908D01*
X137609483Y-70283908D01*
X137549883Y-70277501D01*
X137549881Y-70277500D01*
X137549873Y-70277500D01*
X137549864Y-70277500D01*
X135754129Y-70277500D01*
X135754123Y-70277501D01*
X135694516Y-70283908D01*
X135559671Y-70334202D01*
X135559664Y-70334206D01*
X135444455Y-70420452D01*
X135444452Y-70420455D01*
X135358206Y-70535664D01*
X135358202Y-70535671D01*
X135307908Y-70670517D01*
X135301501Y-70730116D01*
X135301500Y-70730135D01*
X135301500Y-72525870D01*
X135301501Y-72525876D01*
X135307908Y-72585483D01*
X135358202Y-72720328D01*
X135358203Y-72720330D01*
X135435578Y-72823689D01*
X135459995Y-72889153D01*
X135445144Y-72957426D01*
X135435578Y-72972311D01*
X135358203Y-73075669D01*
X135358202Y-73075671D01*
X135307908Y-73210517D01*
X135301501Y-73270116D01*
X135301500Y-73270135D01*
X135301500Y-75065870D01*
X135301501Y-75065876D01*
X135307908Y-75125483D01*
X135358202Y-75260328D01*
X135358203Y-75260330D01*
X135435578Y-75363689D01*
X135459995Y-75429153D01*
X135445144Y-75497426D01*
X135435578Y-75512311D01*
X135358203Y-75615669D01*
X135358202Y-75615671D01*
X135307908Y-75750517D01*
X135301501Y-75810116D01*
X135301500Y-75810135D01*
X135301500Y-77605870D01*
X135301501Y-77605876D01*
X135307908Y-77665483D01*
X135358202Y-77800328D01*
X135358203Y-77800330D01*
X135435578Y-77903689D01*
X135459995Y-77969153D01*
X135445144Y-78037426D01*
X135435578Y-78052311D01*
X135358203Y-78155669D01*
X135358202Y-78155671D01*
X135307908Y-78290517D01*
X135301501Y-78350116D01*
X135301500Y-78350135D01*
X135301500Y-80145870D01*
X135301501Y-80145876D01*
X135307908Y-80205483D01*
X135358202Y-80340328D01*
X135358203Y-80340330D01*
X135435578Y-80443689D01*
X135459995Y-80509153D01*
X135445144Y-80577426D01*
X135435578Y-80592311D01*
X135358203Y-80695669D01*
X135358202Y-80695671D01*
X135307908Y-80830517D01*
X135301501Y-80890116D01*
X135301500Y-80890135D01*
X135301500Y-82685870D01*
X135301501Y-82685876D01*
X135307908Y-82745483D01*
X135358202Y-82880328D01*
X135358206Y-82880335D01*
X135444452Y-82995544D01*
X135444455Y-82995547D01*
X135559664Y-83081793D01*
X135559671Y-83081797D01*
X135604618Y-83098561D01*
X135694517Y-83132091D01*
X135754127Y-83138500D01*
X135902500Y-83138499D01*
X135969539Y-83158183D01*
X136015294Y-83210987D01*
X136026500Y-83262499D01*
X136026500Y-87664983D01*
X136006815Y-87732022D01*
X135954011Y-87777777D01*
X135941510Y-87782686D01*
X135882666Y-87802186D01*
X135882663Y-87802187D01*
X135733342Y-87894289D01*
X135609289Y-88018342D01*
X135609288Y-88018344D01*
X135588831Y-88051511D01*
X135580451Y-88065097D01*
X135528503Y-88111821D01*
X135474912Y-88124000D01*
X133242843Y-88124000D01*
X133175804Y-88104315D01*
X133130049Y-88051511D01*
X133120105Y-87982353D01*
X133141266Y-87928880D01*
X133254035Y-87767830D01*
X133353903Y-87553663D01*
X133415063Y-87325408D01*
X133435659Y-87090000D01*
X133415063Y-86854592D01*
X133353903Y-86626337D01*
X133254035Y-86412171D01*
X133149231Y-86262494D01*
X133118494Y-86218597D01*
X132951402Y-86051506D01*
X132951396Y-86051501D01*
X132765842Y-85921575D01*
X132722217Y-85866998D01*
X132715023Y-85797500D01*
X132746546Y-85735145D01*
X132765842Y-85718425D01*
X132788026Y-85702891D01*
X132951401Y-85588495D01*
X133118495Y-85421401D01*
X133254035Y-85227830D01*
X133353903Y-85013663D01*
X133415063Y-84785408D01*
X133435659Y-84550000D01*
X133415063Y-84314592D01*
X133353903Y-84086337D01*
X133254035Y-83872171D01*
X133249800Y-83866122D01*
X133118494Y-83678597D01*
X132951402Y-83511506D01*
X132951396Y-83511501D01*
X132765842Y-83381575D01*
X132722217Y-83326998D01*
X132715023Y-83257500D01*
X132746546Y-83195145D01*
X132765842Y-83178425D01*
X132822862Y-83138499D01*
X132951401Y-83048495D01*
X133118495Y-82881401D01*
X133254035Y-82687830D01*
X133353903Y-82473663D01*
X133415063Y-82245408D01*
X133435659Y-82010000D01*
X133434595Y-81997844D01*
X133431539Y-81962918D01*
X133415063Y-81774592D01*
X133353903Y-81546337D01*
X133254035Y-81332171D01*
X133253652Y-81331623D01*
X133118494Y-81138597D01*
X132951402Y-80971506D01*
X132951396Y-80971501D01*
X132765842Y-80841575D01*
X132722217Y-80786998D01*
X132715023Y-80717500D01*
X132746546Y-80655145D01*
X132765842Y-80638425D01*
X132870706Y-80564998D01*
X132951401Y-80508495D01*
X133118495Y-80341401D01*
X133254035Y-80147830D01*
X133353903Y-79933663D01*
X133415063Y-79705408D01*
X133435659Y-79470000D01*
X133434595Y-79457844D01*
X133431539Y-79422918D01*
X133415063Y-79234592D01*
X133355579Y-79012592D01*
X133353905Y-79006344D01*
X133353904Y-79006343D01*
X133353903Y-79006337D01*
X133254035Y-78792171D01*
X133248555Y-78784344D01*
X133118494Y-78598597D01*
X132951402Y-78431506D01*
X132951396Y-78431501D01*
X132765842Y-78301575D01*
X132722217Y-78246998D01*
X132715023Y-78177500D01*
X132746546Y-78115145D01*
X132765842Y-78098425D01*
X132870706Y-78024998D01*
X132951401Y-77968495D01*
X133118495Y-77801401D01*
X133254035Y-77607830D01*
X133353903Y-77393663D01*
X133415063Y-77165408D01*
X133435659Y-76930000D01*
X133434595Y-76917844D01*
X133425024Y-76808444D01*
X133415063Y-76694592D01*
X133353903Y-76466337D01*
X133254035Y-76252171D01*
X133233834Y-76223320D01*
X133118494Y-76058597D01*
X132951402Y-75891506D01*
X132951396Y-75891501D01*
X132765842Y-75761575D01*
X132722217Y-75706998D01*
X132715023Y-75637500D01*
X132746546Y-75575145D01*
X132765842Y-75558425D01*
X132870706Y-75484998D01*
X132951401Y-75428495D01*
X133118495Y-75261401D01*
X133254035Y-75067830D01*
X133353903Y-74853663D01*
X133415063Y-74625408D01*
X133435659Y-74390000D01*
X133434595Y-74377844D01*
X133425024Y-74268444D01*
X133415063Y-74154592D01*
X133353903Y-73926337D01*
X133254035Y-73712171D01*
X133233834Y-73683320D01*
X133118494Y-73518597D01*
X132951402Y-73351506D01*
X132951396Y-73351501D01*
X132765842Y-73221575D01*
X132722217Y-73166998D01*
X132715023Y-73097500D01*
X132746546Y-73035145D01*
X132765842Y-73018425D01*
X132870706Y-72944998D01*
X132951401Y-72888495D01*
X133118495Y-72721401D01*
X133254035Y-72527830D01*
X133353903Y-72313663D01*
X133415063Y-72085408D01*
X133435659Y-71850000D01*
X133434595Y-71837844D01*
X133431539Y-71802918D01*
X133415063Y-71614592D01*
X133355579Y-71392592D01*
X133353905Y-71386344D01*
X133353904Y-71386343D01*
X133353903Y-71386337D01*
X133254035Y-71172171D01*
X133248555Y-71164344D01*
X133118494Y-70978597D01*
X132951402Y-70811506D01*
X132951395Y-70811501D01*
X132757834Y-70675967D01*
X132757830Y-70675965D01*
X132739887Y-70667598D01*
X132543663Y-70576097D01*
X132543659Y-70576096D01*
X132543655Y-70576094D01*
X132315413Y-70514938D01*
X132315403Y-70514936D01*
X132080001Y-70494341D01*
X132079999Y-70494341D01*
X131844596Y-70514936D01*
X131844586Y-70514938D01*
X131616344Y-70576094D01*
X131616335Y-70576098D01*
X131402171Y-70675964D01*
X131402169Y-70675965D01*
X131208597Y-70811505D01*
X131041505Y-70978597D01*
X130905965Y-71172169D01*
X130905964Y-71172171D01*
X130806098Y-71386335D01*
X130806094Y-71386344D01*
X130744938Y-71614586D01*
X130744936Y-71614596D01*
X130724341Y-71849999D01*
X130724341Y-71850000D01*
X130744936Y-72085403D01*
X130744938Y-72085413D01*
X130806094Y-72313655D01*
X130806096Y-72313659D01*
X130806097Y-72313663D01*
X130892560Y-72499082D01*
X130905965Y-72527830D01*
X130905967Y-72527834D01*
X131041501Y-72721395D01*
X131041506Y-72721402D01*
X131208597Y-72888493D01*
X131208603Y-72888498D01*
X131394158Y-73018425D01*
X131437783Y-73073002D01*
X131444977Y-73142500D01*
X131413454Y-73204855D01*
X131394158Y-73221575D01*
X131208597Y-73351505D01*
X131041505Y-73518597D01*
X130905965Y-73712169D01*
X130905964Y-73712171D01*
X130806098Y-73926335D01*
X130806094Y-73926344D01*
X130744938Y-74154586D01*
X130744936Y-74154596D01*
X130724341Y-74389999D01*
X130724341Y-74390000D01*
X130744936Y-74625403D01*
X130744938Y-74625413D01*
X130806094Y-74853655D01*
X130806096Y-74853659D01*
X130806097Y-74853663D01*
X130892560Y-75039082D01*
X130905965Y-75067830D01*
X130905967Y-75067834D01*
X131041501Y-75261395D01*
X131041506Y-75261402D01*
X131208597Y-75428493D01*
X131208603Y-75428498D01*
X131394158Y-75558425D01*
X131437783Y-75613002D01*
X131444977Y-75682500D01*
X131413454Y-75744855D01*
X131394158Y-75761575D01*
X131208597Y-75891505D01*
X131041505Y-76058597D01*
X130905965Y-76252169D01*
X130905964Y-76252171D01*
X130806098Y-76466335D01*
X130806094Y-76466344D01*
X130744938Y-76694586D01*
X130744936Y-76694596D01*
X130724341Y-76929999D01*
X130724341Y-76930000D01*
X130744936Y-77165403D01*
X130744938Y-77165413D01*
X130806094Y-77393655D01*
X130806096Y-77393659D01*
X130806097Y-77393663D01*
X130892560Y-77579082D01*
X130905965Y-77607830D01*
X130905967Y-77607834D01*
X131041501Y-77801395D01*
X131041506Y-77801402D01*
X131208597Y-77968493D01*
X131208603Y-77968498D01*
X131394158Y-78098425D01*
X131437783Y-78153002D01*
X131444977Y-78222500D01*
X131413454Y-78284855D01*
X131394158Y-78301575D01*
X131208597Y-78431505D01*
X131041505Y-78598597D01*
X130905965Y-78792169D01*
X130905964Y-78792171D01*
X130806098Y-79006335D01*
X130806094Y-79006344D01*
X130744938Y-79234586D01*
X130744936Y-79234596D01*
X130724341Y-79469999D01*
X130724341Y-79470000D01*
X130744936Y-79705403D01*
X130744938Y-79705413D01*
X130806094Y-79933655D01*
X130806096Y-79933659D01*
X130806097Y-79933663D01*
X130892560Y-80119082D01*
X130905965Y-80147830D01*
X130905967Y-80147834D01*
X131041501Y-80341395D01*
X131041506Y-80341402D01*
X131208597Y-80508493D01*
X131208603Y-80508498D01*
X131394158Y-80638425D01*
X131437783Y-80693002D01*
X131444977Y-80762500D01*
X131413454Y-80824855D01*
X131394158Y-80841575D01*
X131208597Y-80971505D01*
X131041505Y-81138597D01*
X130905965Y-81332169D01*
X130905964Y-81332171D01*
X130806098Y-81546335D01*
X130806094Y-81546344D01*
X130744938Y-81774586D01*
X130744936Y-81774596D01*
X130724341Y-82009999D01*
X130724341Y-82010000D01*
X130744936Y-82245403D01*
X130744938Y-82245413D01*
X130806094Y-82473655D01*
X130806096Y-82473659D01*
X130806097Y-82473663D01*
X130876498Y-82624638D01*
X130905965Y-82687830D01*
X130905967Y-82687834D01*
X130917324Y-82704053D01*
X131041501Y-82881396D01*
X131041506Y-82881402D01*
X131208597Y-83048493D01*
X131208603Y-83048498D01*
X131394158Y-83178425D01*
X131437783Y-83233002D01*
X131444977Y-83302500D01*
X131413454Y-83364855D01*
X131394158Y-83381575D01*
X131208597Y-83511505D01*
X131041505Y-83678597D01*
X130905965Y-83872169D01*
X130905964Y-83872171D01*
X130806098Y-84086335D01*
X130806094Y-84086344D01*
X130744938Y-84314586D01*
X130744936Y-84314596D01*
X130724341Y-84549999D01*
X130724341Y-84550000D01*
X130744936Y-84785403D01*
X130744938Y-84785413D01*
X130806094Y-85013655D01*
X130806096Y-85013659D01*
X130806097Y-85013663D01*
X130872349Y-85155740D01*
X130905965Y-85227830D01*
X130905967Y-85227834D01*
X130987308Y-85344000D01*
X131017285Y-85386812D01*
X131041501Y-85421395D01*
X131041506Y-85421402D01*
X131208597Y-85588493D01*
X131208603Y-85588498D01*
X131394158Y-85718425D01*
X131437783Y-85773002D01*
X131444977Y-85842500D01*
X131413454Y-85904855D01*
X131394158Y-85921575D01*
X131208597Y-86051505D01*
X131041505Y-86218597D01*
X130905965Y-86412169D01*
X130905964Y-86412171D01*
X130806098Y-86626335D01*
X130806094Y-86626344D01*
X130744938Y-86854586D01*
X130744936Y-86854596D01*
X130724341Y-87089999D01*
X130724341Y-87090000D01*
X130744936Y-87325403D01*
X130744938Y-87325413D01*
X130806094Y-87553655D01*
X130806096Y-87553659D01*
X130806097Y-87553663D01*
X130858007Y-87664983D01*
X130905965Y-87767830D01*
X130905967Y-87767834D01*
X131014281Y-87922521D01*
X131030804Y-87946119D01*
X131041501Y-87961395D01*
X131041506Y-87961402D01*
X131208597Y-88128493D01*
X131208603Y-88128498D01*
X131394158Y-88258425D01*
X131437783Y-88313002D01*
X131444977Y-88382500D01*
X131413454Y-88444855D01*
X131394158Y-88461575D01*
X131208597Y-88591505D01*
X131041505Y-88758597D01*
X130905965Y-88952169D01*
X130905964Y-88952171D01*
X130806098Y-89166335D01*
X130806094Y-89166344D01*
X130744938Y-89394586D01*
X130744936Y-89394596D01*
X130724341Y-89629999D01*
X130724341Y-89630000D01*
X130744936Y-89865403D01*
X130744938Y-89865413D01*
X130806094Y-90093655D01*
X130806096Y-90093659D01*
X130806097Y-90093663D01*
X130841694Y-90170000D01*
X130905965Y-90307830D01*
X130905967Y-90307834D01*
X130951727Y-90373185D01*
X131041505Y-90501401D01*
X131208599Y-90668495D01*
X131222174Y-90678000D01*
X131402165Y-90804032D01*
X131402167Y-90804033D01*
X131402170Y-90804035D01*
X131616337Y-90903903D01*
X131844592Y-90965063D01*
X132032918Y-90981539D01*
X132079999Y-90985659D01*
X132080000Y-90985659D01*
X132080001Y-90985659D01*
X132119234Y-90982226D01*
X132315408Y-90965063D01*
X132543663Y-90903903D01*
X132757830Y-90804035D01*
X132951401Y-90668495D01*
X133118495Y-90501401D01*
X133254035Y-90307830D01*
X133353903Y-90093663D01*
X133415063Y-89865408D01*
X133435659Y-89630000D01*
X133425143Y-89509806D01*
X133438909Y-89441308D01*
X133487524Y-89391125D01*
X133548671Y-89375000D01*
X135474912Y-89375000D01*
X135541951Y-89394685D01*
X135580449Y-89433901D01*
X135609288Y-89480656D01*
X135609289Y-89480657D01*
X135702951Y-89574319D01*
X135736436Y-89635642D01*
X135731452Y-89705334D01*
X135702951Y-89749681D01*
X135609289Y-89843342D01*
X135517187Y-89992663D01*
X135517185Y-89992668D01*
X135504209Y-90031827D01*
X135462001Y-90159203D01*
X135462001Y-90159204D01*
X135462000Y-90159204D01*
X135451500Y-90261983D01*
X135451500Y-90887001D01*
X135451501Y-90887019D01*
X135462000Y-90989796D01*
X135462001Y-90989799D01*
X135480719Y-91046284D01*
X135517186Y-91156334D01*
X135609288Y-91305656D01*
X135733344Y-91429712D01*
X135882666Y-91521814D01*
X135991247Y-91557794D01*
X136048692Y-91597567D01*
X136075515Y-91662083D01*
X136063200Y-91730858D01*
X136015657Y-91782058D01*
X135952243Y-91799500D01*
X129924500Y-91799500D01*
X129857461Y-91779815D01*
X129811706Y-91727011D01*
X129800500Y-91675500D01*
X129800500Y-69724500D01*
X129820185Y-69657461D01*
X129872989Y-69611706D01*
X129924500Y-69600500D01*
X153675500Y-69600500D01*
X153742539Y-69620185D01*
G37*
%TD.AperFunction*%
%TA.AperFunction,Conductor*%
G36*
X139442000Y-81352498D02*
G01*
X139334315Y-81303320D01*
X139227763Y-81288000D01*
X139156237Y-81288000D01*
X139049685Y-81303320D01*
X138942000Y-81352498D01*
X138942000Y-79683501D01*
X139049685Y-79732680D01*
X139156237Y-79748000D01*
X139227763Y-79748000D01*
X139334315Y-79732680D01*
X139442000Y-79683501D01*
X139442000Y-81352498D01*
G37*
%TD.AperFunction*%
%TA.AperFunction,Conductor*%
G36*
X139442000Y-78812498D02*
G01*
X139334315Y-78763320D01*
X139227763Y-78748000D01*
X139156237Y-78748000D01*
X139049685Y-78763320D01*
X138942000Y-78812498D01*
X138942000Y-77143501D01*
X139049685Y-77192680D01*
X139156237Y-77208000D01*
X139227763Y-77208000D01*
X139334315Y-77192680D01*
X139442000Y-77143501D01*
X139442000Y-78812498D01*
G37*
%TD.AperFunction*%
%TA.AperFunction,Conductor*%
G36*
X139442000Y-76272498D02*
G01*
X139334315Y-76223320D01*
X139227763Y-76208000D01*
X139156237Y-76208000D01*
X139049685Y-76223320D01*
X138942000Y-76272498D01*
X138942000Y-74603501D01*
X139049685Y-74652680D01*
X139156237Y-74668000D01*
X139227763Y-74668000D01*
X139334315Y-74652680D01*
X139442000Y-74603501D01*
X139442000Y-76272498D01*
G37*
%TD.AperFunction*%
%TA.AperFunction,Conductor*%
G36*
X139442000Y-73732498D02*
G01*
X139334315Y-73683320D01*
X139227763Y-73668000D01*
X139156237Y-73668000D01*
X139049685Y-73683320D01*
X138942000Y-73732498D01*
X138942000Y-72063501D01*
X139049685Y-72112680D01*
X139156237Y-72128000D01*
X139227763Y-72128000D01*
X139334315Y-72112680D01*
X139442000Y-72063501D01*
X139442000Y-73732498D01*
G37*
%TD.AperFunction*%
%TD*%
D18*
X129800000Y-69600000D02*
X153800000Y-69600000D01*
X153800000Y-91800000D01*
X129800000Y-91800000D01*
X129800000Y-69600000D01*
M02*
