%TF.GenerationSoftware,KiCad,Pcbnew,7.0.10*%
%TF.CreationDate,2024-08-23T10:21:53-04:00*%
%TF.ProjectId,mks_wifi_breakout,6d6b735f-7769-4666-995f-627265616b6f,rev?*%
%TF.SameCoordinates,Original*%
%TF.FileFunction,Legend,Bot*%
%TF.FilePolarity,Positive*%
%FSLAX46Y46*%
G04 Gerber Fmt 4.6, Leading zero omitted, Abs format (unit mm)*
G04 Created by KiCad (PCBNEW 7.0.10) date 2024-08-23 10:21:53*
%MOMM*%
%LPD*%
G01*
G04 APERTURE LIST*
%ADD10C,0.200000*%
%ADD11C,0.150000*%
%ADD12C,0.120000*%
%TA.AperFunction,Profile*%
%ADD13C,0.100000*%
%TD*%
G04 APERTURE END LIST*
D10*
X145559314Y-71919768D02*
X145464076Y-71795958D01*
X145464076Y-71795958D02*
X145273600Y-71672149D01*
X145273600Y-71672149D02*
X144987885Y-71486435D01*
X144987885Y-71486435D02*
X144892647Y-71362625D01*
X144892647Y-71362625D02*
X144892647Y-71238816D01*
X145368838Y-71300720D02*
X145273600Y-71176911D01*
X145273600Y-71176911D02*
X145083123Y-71053101D01*
X145083123Y-71053101D02*
X144702171Y-70991197D01*
X144702171Y-70991197D02*
X144035504Y-70991197D01*
X144035504Y-70991197D02*
X143654552Y-71053101D01*
X143654552Y-71053101D02*
X143464076Y-71176911D01*
X143464076Y-71176911D02*
X143368838Y-71300720D01*
X143368838Y-71300720D02*
X143368838Y-71548339D01*
X143368838Y-71548339D02*
X143464076Y-71672149D01*
X143464076Y-71672149D02*
X143654552Y-71795958D01*
X143654552Y-71795958D02*
X144035504Y-71857863D01*
X144035504Y-71857863D02*
X144702171Y-71857863D01*
X144702171Y-71857863D02*
X145083123Y-71795958D01*
X145083123Y-71795958D02*
X145273600Y-71672149D01*
X145273600Y-71672149D02*
X145368838Y-71548339D01*
X145368838Y-71548339D02*
X145368838Y-71300720D01*
X145559314Y-73281673D02*
X145464076Y-73157863D01*
X145464076Y-73157863D02*
X145273600Y-73034054D01*
X145273600Y-73034054D02*
X144987885Y-72848340D01*
X144987885Y-72848340D02*
X144892647Y-72724530D01*
X144892647Y-72724530D02*
X144892647Y-72600721D01*
X145368838Y-72662625D02*
X145273600Y-72538816D01*
X145273600Y-72538816D02*
X145083123Y-72415006D01*
X145083123Y-72415006D02*
X144702171Y-72353102D01*
X144702171Y-72353102D02*
X144035504Y-72353102D01*
X144035504Y-72353102D02*
X143654552Y-72415006D01*
X143654552Y-72415006D02*
X143464076Y-72538816D01*
X143464076Y-72538816D02*
X143368838Y-72662625D01*
X143368838Y-72662625D02*
X143368838Y-72910244D01*
X143368838Y-72910244D02*
X143464076Y-73034054D01*
X143464076Y-73034054D02*
X143654552Y-73157863D01*
X143654552Y-73157863D02*
X144035504Y-73219768D01*
X144035504Y-73219768D02*
X144702171Y-73219768D01*
X144702171Y-73219768D02*
X145083123Y-73157863D01*
X145083123Y-73157863D02*
X145273600Y-73034054D01*
X145273600Y-73034054D02*
X145368838Y-72910244D01*
X145368838Y-72910244D02*
X145368838Y-72662625D01*
X145273600Y-73715007D02*
X145368838Y-73900721D01*
X145368838Y-73900721D02*
X145368838Y-74210245D01*
X145368838Y-74210245D02*
X145273600Y-74334054D01*
X145273600Y-74334054D02*
X145178361Y-74395959D01*
X145178361Y-74395959D02*
X144987885Y-74457864D01*
X144987885Y-74457864D02*
X144797409Y-74457864D01*
X144797409Y-74457864D02*
X144606933Y-74395959D01*
X144606933Y-74395959D02*
X144511695Y-74334054D01*
X144511695Y-74334054D02*
X144416457Y-74210245D01*
X144416457Y-74210245D02*
X144321219Y-73962626D01*
X144321219Y-73962626D02*
X144225980Y-73838816D01*
X144225980Y-73838816D02*
X144130742Y-73776911D01*
X144130742Y-73776911D02*
X143940266Y-73715007D01*
X143940266Y-73715007D02*
X143749790Y-73715007D01*
X143749790Y-73715007D02*
X143559314Y-73776911D01*
X143559314Y-73776911D02*
X143464076Y-73838816D01*
X143464076Y-73838816D02*
X143368838Y-73962626D01*
X143368838Y-73962626D02*
X143368838Y-74272149D01*
X143368838Y-74272149D02*
X143464076Y-74457864D01*
X145368838Y-75015006D02*
X143368838Y-75015006D01*
X143368838Y-75015006D02*
X143368838Y-75510244D01*
X143368838Y-75510244D02*
X143464076Y-75634054D01*
X143464076Y-75634054D02*
X143559314Y-75695959D01*
X143559314Y-75695959D02*
X143749790Y-75757863D01*
X143749790Y-75757863D02*
X144035504Y-75757863D01*
X144035504Y-75757863D02*
X144225980Y-75695959D01*
X144225980Y-75695959D02*
X144321219Y-75634054D01*
X144321219Y-75634054D02*
X144416457Y-75510244D01*
X144416457Y-75510244D02*
X144416457Y-75015006D01*
X143368838Y-77181673D02*
X145368838Y-77491197D01*
X145368838Y-77491197D02*
X143940266Y-77738816D01*
X143940266Y-77738816D02*
X145368838Y-77986435D01*
X145368838Y-77986435D02*
X143368838Y-78295959D01*
X145368838Y-78791196D02*
X143368838Y-78791196D01*
X144321219Y-79843578D02*
X144321219Y-79410244D01*
X145368838Y-79410244D02*
X143368838Y-79410244D01*
X143368838Y-79410244D02*
X143368838Y-80029292D01*
X145368838Y-80524530D02*
X143368838Y-80524530D01*
X147541219Y-71486435D02*
X147636457Y-71672149D01*
X147636457Y-71672149D02*
X147731695Y-71734054D01*
X147731695Y-71734054D02*
X147922171Y-71795958D01*
X147922171Y-71795958D02*
X148207885Y-71795958D01*
X148207885Y-71795958D02*
X148398361Y-71734054D01*
X148398361Y-71734054D02*
X148493600Y-71672149D01*
X148493600Y-71672149D02*
X148588838Y-71548339D01*
X148588838Y-71548339D02*
X148588838Y-71053101D01*
X148588838Y-71053101D02*
X146588838Y-71053101D01*
X146588838Y-71053101D02*
X146588838Y-71486435D01*
X146588838Y-71486435D02*
X146684076Y-71610244D01*
X146684076Y-71610244D02*
X146779314Y-71672149D01*
X146779314Y-71672149D02*
X146969790Y-71734054D01*
X146969790Y-71734054D02*
X147160266Y-71734054D01*
X147160266Y-71734054D02*
X147350742Y-71672149D01*
X147350742Y-71672149D02*
X147445980Y-71610244D01*
X147445980Y-71610244D02*
X147541219Y-71486435D01*
X147541219Y-71486435D02*
X147541219Y-71053101D01*
X148588838Y-72353101D02*
X147255504Y-72353101D01*
X147636457Y-72353101D02*
X147445980Y-72415006D01*
X147445980Y-72415006D02*
X147350742Y-72476911D01*
X147350742Y-72476911D02*
X147255504Y-72600720D01*
X147255504Y-72600720D02*
X147255504Y-72724530D01*
X148493600Y-73653101D02*
X148588838Y-73529292D01*
X148588838Y-73529292D02*
X148588838Y-73281673D01*
X148588838Y-73281673D02*
X148493600Y-73157863D01*
X148493600Y-73157863D02*
X148303123Y-73095959D01*
X148303123Y-73095959D02*
X147541219Y-73095959D01*
X147541219Y-73095959D02*
X147350742Y-73157863D01*
X147350742Y-73157863D02*
X147255504Y-73281673D01*
X147255504Y-73281673D02*
X147255504Y-73529292D01*
X147255504Y-73529292D02*
X147350742Y-73653101D01*
X147350742Y-73653101D02*
X147541219Y-73715006D01*
X147541219Y-73715006D02*
X147731695Y-73715006D01*
X147731695Y-73715006D02*
X147922171Y-73095959D01*
X148588838Y-74829292D02*
X147541219Y-74829292D01*
X147541219Y-74829292D02*
X147350742Y-74767387D01*
X147350742Y-74767387D02*
X147255504Y-74643578D01*
X147255504Y-74643578D02*
X147255504Y-74395959D01*
X147255504Y-74395959D02*
X147350742Y-74272149D01*
X148493600Y-74829292D02*
X148588838Y-74705483D01*
X148588838Y-74705483D02*
X148588838Y-74395959D01*
X148588838Y-74395959D02*
X148493600Y-74272149D01*
X148493600Y-74272149D02*
X148303123Y-74210245D01*
X148303123Y-74210245D02*
X148112647Y-74210245D01*
X148112647Y-74210245D02*
X147922171Y-74272149D01*
X147922171Y-74272149D02*
X147826933Y-74395959D01*
X147826933Y-74395959D02*
X147826933Y-74705483D01*
X147826933Y-74705483D02*
X147731695Y-74829292D01*
X148588838Y-75448339D02*
X146588838Y-75448339D01*
X147826933Y-75572149D02*
X148588838Y-75943577D01*
X147255504Y-75943577D02*
X148017409Y-75448339D01*
X148588838Y-76686435D02*
X148493600Y-76562625D01*
X148493600Y-76562625D02*
X148398361Y-76500720D01*
X148398361Y-76500720D02*
X148207885Y-76438816D01*
X148207885Y-76438816D02*
X147636457Y-76438816D01*
X147636457Y-76438816D02*
X147445980Y-76500720D01*
X147445980Y-76500720D02*
X147350742Y-76562625D01*
X147350742Y-76562625D02*
X147255504Y-76686435D01*
X147255504Y-76686435D02*
X147255504Y-76872149D01*
X147255504Y-76872149D02*
X147350742Y-76995958D01*
X147350742Y-76995958D02*
X147445980Y-77057863D01*
X147445980Y-77057863D02*
X147636457Y-77119768D01*
X147636457Y-77119768D02*
X148207885Y-77119768D01*
X148207885Y-77119768D02*
X148398361Y-77057863D01*
X148398361Y-77057863D02*
X148493600Y-76995958D01*
X148493600Y-76995958D02*
X148588838Y-76872149D01*
X148588838Y-76872149D02*
X148588838Y-76686435D01*
X147255504Y-78234053D02*
X148588838Y-78234053D01*
X147255504Y-77676910D02*
X148303123Y-77676910D01*
X148303123Y-77676910D02*
X148493600Y-77738815D01*
X148493600Y-77738815D02*
X148588838Y-77862625D01*
X148588838Y-77862625D02*
X148588838Y-78048339D01*
X148588838Y-78048339D02*
X148493600Y-78172148D01*
X148493600Y-78172148D02*
X148398361Y-78234053D01*
X147255504Y-78667386D02*
X147255504Y-79162624D01*
X146588838Y-78853100D02*
X148303123Y-78853100D01*
X148303123Y-78853100D02*
X148493600Y-78915005D01*
X148493600Y-78915005D02*
X148588838Y-79038815D01*
X148588838Y-79038815D02*
X148588838Y-79162624D01*
D11*
X139795238Y-87672057D02*
X139890476Y-87624438D01*
X139890476Y-87624438D02*
X139985714Y-87529200D01*
X139985714Y-87529200D02*
X140128571Y-87386342D01*
X140128571Y-87386342D02*
X140223809Y-87338723D01*
X140223809Y-87338723D02*
X140319047Y-87338723D01*
X140271428Y-87576819D02*
X140366666Y-87529200D01*
X140366666Y-87529200D02*
X140461904Y-87433961D01*
X140461904Y-87433961D02*
X140509523Y-87243485D01*
X140509523Y-87243485D02*
X140509523Y-86910152D01*
X140509523Y-86910152D02*
X140461904Y-86719676D01*
X140461904Y-86719676D02*
X140366666Y-86624438D01*
X140366666Y-86624438D02*
X140271428Y-86576819D01*
X140271428Y-86576819D02*
X140080952Y-86576819D01*
X140080952Y-86576819D02*
X139985714Y-86624438D01*
X139985714Y-86624438D02*
X139890476Y-86719676D01*
X139890476Y-86719676D02*
X139842857Y-86910152D01*
X139842857Y-86910152D02*
X139842857Y-87243485D01*
X139842857Y-87243485D02*
X139890476Y-87433961D01*
X139890476Y-87433961D02*
X139985714Y-87529200D01*
X139985714Y-87529200D02*
X140080952Y-87576819D01*
X140080952Y-87576819D02*
X140271428Y-87576819D01*
X138890476Y-87576819D02*
X139461904Y-87576819D01*
X139176190Y-87576819D02*
X139176190Y-86576819D01*
X139176190Y-86576819D02*
X139271428Y-86719676D01*
X139271428Y-86719676D02*
X139366666Y-86814914D01*
X139366666Y-86814914D02*
X139461904Y-86862533D01*
X134551009Y-79010095D02*
X134598628Y-79152952D01*
X134598628Y-79152952D02*
X134646247Y-79200571D01*
X134646247Y-79200571D02*
X134741485Y-79248190D01*
X134741485Y-79248190D02*
X134884342Y-79248190D01*
X134884342Y-79248190D02*
X134979580Y-79200571D01*
X134979580Y-79200571D02*
X135027200Y-79152952D01*
X135027200Y-79152952D02*
X135074819Y-79057714D01*
X135074819Y-79057714D02*
X135074819Y-78676762D01*
X135074819Y-78676762D02*
X134074819Y-78676762D01*
X134074819Y-78676762D02*
X134074819Y-79010095D01*
X134074819Y-79010095D02*
X134122438Y-79105333D01*
X134122438Y-79105333D02*
X134170057Y-79152952D01*
X134170057Y-79152952D02*
X134265295Y-79200571D01*
X134265295Y-79200571D02*
X134360533Y-79200571D01*
X134360533Y-79200571D02*
X134455771Y-79152952D01*
X134455771Y-79152952D02*
X134503390Y-79105333D01*
X134503390Y-79105333D02*
X134551009Y-79010095D01*
X134551009Y-79010095D02*
X134551009Y-78676762D01*
X135074819Y-80152952D02*
X135074819Y-79676762D01*
X135074819Y-79676762D02*
X134074819Y-79676762D01*
X134789104Y-80438667D02*
X134789104Y-80914857D01*
X135074819Y-80343429D02*
X134074819Y-80676762D01*
X134074819Y-80676762D02*
X135074819Y-81010095D01*
X134979580Y-81914857D02*
X135027200Y-81867238D01*
X135027200Y-81867238D02*
X135074819Y-81724381D01*
X135074819Y-81724381D02*
X135074819Y-81629143D01*
X135074819Y-81629143D02*
X135027200Y-81486286D01*
X135027200Y-81486286D02*
X134931961Y-81391048D01*
X134931961Y-81391048D02*
X134836723Y-81343429D01*
X134836723Y-81343429D02*
X134646247Y-81295810D01*
X134646247Y-81295810D02*
X134503390Y-81295810D01*
X134503390Y-81295810D02*
X134312914Y-81343429D01*
X134312914Y-81343429D02*
X134217676Y-81391048D01*
X134217676Y-81391048D02*
X134122438Y-81486286D01*
X134122438Y-81486286D02*
X134074819Y-81629143D01*
X134074819Y-81629143D02*
X134074819Y-81724381D01*
X134074819Y-81724381D02*
X134122438Y-81867238D01*
X134122438Y-81867238D02*
X134170057Y-81914857D01*
X135074819Y-82343429D02*
X134074819Y-82343429D01*
X135074819Y-82914857D02*
X134503390Y-82486286D01*
X134074819Y-82914857D02*
X134646247Y-82343429D01*
X137106819Y-86701333D02*
X136630628Y-86368000D01*
X137106819Y-86129905D02*
X136106819Y-86129905D01*
X136106819Y-86129905D02*
X136106819Y-86510857D01*
X136106819Y-86510857D02*
X136154438Y-86606095D01*
X136154438Y-86606095D02*
X136202057Y-86653714D01*
X136202057Y-86653714D02*
X136297295Y-86701333D01*
X136297295Y-86701333D02*
X136440152Y-86701333D01*
X136440152Y-86701333D02*
X136535390Y-86653714D01*
X136535390Y-86653714D02*
X136583009Y-86606095D01*
X136583009Y-86606095D02*
X136630628Y-86510857D01*
X136630628Y-86510857D02*
X136630628Y-86129905D01*
X136202057Y-87082286D02*
X136154438Y-87129905D01*
X136154438Y-87129905D02*
X136106819Y-87225143D01*
X136106819Y-87225143D02*
X136106819Y-87463238D01*
X136106819Y-87463238D02*
X136154438Y-87558476D01*
X136154438Y-87558476D02*
X136202057Y-87606095D01*
X136202057Y-87606095D02*
X136297295Y-87653714D01*
X136297295Y-87653714D02*
X136392533Y-87653714D01*
X136392533Y-87653714D02*
X136535390Y-87606095D01*
X136535390Y-87606095D02*
X137106819Y-87034667D01*
X137106819Y-87034667D02*
X137106819Y-87653714D01*
X148028819Y-89241333D02*
X147552628Y-88908000D01*
X148028819Y-88669905D02*
X147028819Y-88669905D01*
X147028819Y-88669905D02*
X147028819Y-89050857D01*
X147028819Y-89050857D02*
X147076438Y-89146095D01*
X147076438Y-89146095D02*
X147124057Y-89193714D01*
X147124057Y-89193714D02*
X147219295Y-89241333D01*
X147219295Y-89241333D02*
X147362152Y-89241333D01*
X147362152Y-89241333D02*
X147457390Y-89193714D01*
X147457390Y-89193714D02*
X147505009Y-89146095D01*
X147505009Y-89146095D02*
X147552628Y-89050857D01*
X147552628Y-89050857D02*
X147552628Y-88669905D01*
X148028819Y-90193714D02*
X148028819Y-89622286D01*
X148028819Y-89908000D02*
X147028819Y-89908000D01*
X147028819Y-89908000D02*
X147171676Y-89812762D01*
X147171676Y-89812762D02*
X147266914Y-89717524D01*
X147266914Y-89717524D02*
X147314533Y-89622286D01*
X148854438Y-79105333D02*
X148806819Y-79010095D01*
X148806819Y-79010095D02*
X148806819Y-78867238D01*
X148806819Y-78867238D02*
X148854438Y-78724381D01*
X148854438Y-78724381D02*
X148949676Y-78629143D01*
X148949676Y-78629143D02*
X149044914Y-78581524D01*
X149044914Y-78581524D02*
X149235390Y-78533905D01*
X149235390Y-78533905D02*
X149378247Y-78533905D01*
X149378247Y-78533905D02*
X149568723Y-78581524D01*
X149568723Y-78581524D02*
X149663961Y-78629143D01*
X149663961Y-78629143D02*
X149759200Y-78724381D01*
X149759200Y-78724381D02*
X149806819Y-78867238D01*
X149806819Y-78867238D02*
X149806819Y-78962476D01*
X149806819Y-78962476D02*
X149759200Y-79105333D01*
X149759200Y-79105333D02*
X149711580Y-79152952D01*
X149711580Y-79152952D02*
X149378247Y-79152952D01*
X149378247Y-79152952D02*
X149378247Y-78962476D01*
X149806819Y-80152952D02*
X149330628Y-79819619D01*
X149806819Y-79581524D02*
X148806819Y-79581524D01*
X148806819Y-79581524D02*
X148806819Y-79962476D01*
X148806819Y-79962476D02*
X148854438Y-80057714D01*
X148854438Y-80057714D02*
X148902057Y-80105333D01*
X148902057Y-80105333D02*
X148997295Y-80152952D01*
X148997295Y-80152952D02*
X149140152Y-80152952D01*
X149140152Y-80152952D02*
X149235390Y-80105333D01*
X149235390Y-80105333D02*
X149283009Y-80057714D01*
X149283009Y-80057714D02*
X149330628Y-79962476D01*
X149330628Y-79962476D02*
X149330628Y-79581524D01*
X149283009Y-80581524D02*
X149283009Y-80914857D01*
X149806819Y-81057714D02*
X149806819Y-80581524D01*
X149806819Y-80581524D02*
X148806819Y-80581524D01*
X148806819Y-80581524D02*
X148806819Y-81057714D01*
X149283009Y-81486286D02*
X149283009Y-81819619D01*
X149806819Y-81962476D02*
X149806819Y-81486286D01*
X149806819Y-81486286D02*
X148806819Y-81486286D01*
X148806819Y-81486286D02*
X148806819Y-81962476D01*
X149806819Y-82391048D02*
X148806819Y-82391048D01*
X148806819Y-82391048D02*
X149806819Y-82962476D01*
X149806819Y-82962476D02*
X148806819Y-82962476D01*
D12*
%TO.C,Q1*%
X139875500Y-88168000D02*
X139225500Y-88168000D01*
X139875500Y-88168000D02*
X140525500Y-88168000D01*
X139875500Y-91288000D02*
X138200500Y-91288000D01*
X139875500Y-91288000D02*
X140525500Y-91288000D01*
%TO.C,BLACK*%
X133410000Y-90960000D02*
X130750000Y-90960000D01*
X133410000Y-73120000D02*
X133410000Y-90960000D01*
X133410000Y-73120000D02*
X130750000Y-73120000D01*
X133410000Y-71850000D02*
X133410000Y-70520000D01*
X133410000Y-70520000D02*
X132080000Y-70520000D01*
X130750000Y-73120000D02*
X130750000Y-90960000D01*
%TO.C,R2*%
X135917000Y-89889064D02*
X135917000Y-89434936D01*
X137387000Y-89889064D02*
X137387000Y-89434936D01*
%TO.C,R1*%
X146664000Y-86579064D02*
X146664000Y-85124936D01*
X148484000Y-86579064D02*
X148484000Y-85124936D01*
%TO.C,GREEN*%
X153010000Y-90960000D02*
X150350000Y-90960000D01*
X153010000Y-73120000D02*
X153010000Y-90960000D01*
X153010000Y-73120000D02*
X150350000Y-73120000D01*
X153010000Y-71850000D02*
X153010000Y-70520000D01*
X153010000Y-70520000D02*
X151680000Y-70520000D01*
X150350000Y-73120000D02*
X150350000Y-90960000D01*
%TD*%
D13*
X129800000Y-69600000D02*
X153800000Y-69600000D01*
X153800000Y-91800000D01*
X129800000Y-91800000D01*
X129800000Y-69600000D01*
M02*
