%TF.GenerationSoftware,KiCad,Pcbnew,7.0.10*%
%TF.CreationDate,2024-08-23T10:21:53-04:00*%
%TF.ProjectId,mks_wifi_breakout,6d6b735f-7769-4666-995f-627265616b6f,rev?*%
%TF.SameCoordinates,Original*%
%TF.FileFunction,Soldermask,Bot*%
%TF.FilePolarity,Negative*%
%FSLAX46Y46*%
G04 Gerber Fmt 4.6, Leading zero omitted, Abs format (unit mm)*
G04 Created by KiCad (PCBNEW 7.0.10) date 2024-08-23 10:21:53*
%MOMM*%
%LPD*%
G01*
G04 APERTURE LIST*
G04 Aperture macros list*
%AMRoundRect*
0 Rectangle with rounded corners*
0 $1 Rounding radius*
0 $2 $3 $4 $5 $6 $7 $8 $9 X,Y pos of 4 corners*
0 Add a 4 corners polygon primitive as box body*
4,1,4,$2,$3,$4,$5,$6,$7,$8,$9,$2,$3,0*
0 Add four circle primitives for the rounded corners*
1,1,$1+$1,$2,$3*
1,1,$1+$1,$4,$5*
1,1,$1+$1,$6,$7*
1,1,$1+$1,$8,$9*
0 Add four rect primitives between the rounded corners*
20,1,$1+$1,$2,$3,$4,$5,0*
20,1,$1+$1,$4,$5,$6,$7,0*
20,1,$1+$1,$6,$7,$8,$9,0*
20,1,$1+$1,$8,$9,$2,$3,0*%
G04 Aperture macros list end*
%ADD10R,1.700000X1.700000*%
%ADD11O,1.700000X1.700000*%
%ADD12RoundRect,0.150000X-0.587500X-0.150000X0.587500X-0.150000X0.587500X0.150000X-0.587500X0.150000X0*%
%ADD13C,1.700000*%
%ADD14RoundRect,0.250000X0.450000X-0.262500X0.450000X0.262500X-0.450000X0.262500X-0.450000X-0.262500X0*%
%ADD15RoundRect,0.250000X0.625000X-0.312500X0.625000X0.312500X-0.625000X0.312500X-0.625000X-0.312500X0*%
%TA.AperFunction,Profile*%
%ADD16C,0.100000*%
%TD*%
G04 APERTURE END LIST*
D10*
%TO.C,PA10*%
X136652000Y-74168000D03*
D11*
X139192000Y-74168000D03*
X141732000Y-74168000D03*
%TD*%
D10*
%TO.C,PA9*%
X136652000Y-76708000D03*
D11*
X139192000Y-76708000D03*
X141732000Y-76708000D03*
%TD*%
D10*
%TO.C,PC7*%
X136652000Y-71628000D03*
D11*
X139192000Y-71628000D03*
X141732000Y-71628000D03*
%TD*%
D10*
%TO.C,PA8*%
X136652000Y-79248000D03*
D11*
X139192000Y-79248000D03*
X141732000Y-79248000D03*
%TD*%
D10*
%TO.C,PA5*%
X136652000Y-81788000D03*
D11*
X139192000Y-81788000D03*
X141732000Y-81788000D03*
%TD*%
D12*
%TO.C,Q1*%
X138938000Y-90678000D03*
X138938000Y-88778000D03*
X140813000Y-89728000D03*
%TD*%
D13*
%TO.C,BLACK*%
X132080000Y-71850000D03*
D11*
X132080000Y-74390000D03*
X132080000Y-76930000D03*
X132080000Y-79470000D03*
X132080000Y-82010000D03*
X132080000Y-84550000D03*
X132080000Y-87090000D03*
X132080000Y-89630000D03*
%TD*%
D14*
%TO.C,R2*%
X136652000Y-90574500D03*
X136652000Y-88749500D03*
%TD*%
D15*
%TO.C,R1*%
X147574000Y-87314500D03*
X147574000Y-84389500D03*
%TD*%
D13*
%TO.C,GREEN*%
X151680000Y-71850000D03*
D11*
X151680000Y-74390000D03*
X151680000Y-76930000D03*
X151680000Y-79470000D03*
X151680000Y-82010000D03*
X151680000Y-84550000D03*
X151680000Y-87090000D03*
X151680000Y-89630000D03*
%TD*%
D16*
X129800000Y-69600000D02*
X153800000Y-69600000D01*
X153800000Y-91800000D01*
X129800000Y-91800000D01*
X129800000Y-69600000D01*
M02*
