M48
; DRILL file {KiCad 7.0.10} date Fri Aug 23 10:22:01 2024
; FORMAT={-:-/ absolute / inch / decimal}
; #@! TF.CreationDate,2024-08-23T10:22:01-04:00
; #@! TF.GenerationSoftware,Kicad,Pcbnew,7.0.10
; #@! TF.FileFunction,Plated,1,2,PTH
FMAT,2
INCH
; #@! TA.AperFunction,Plated,PTH,ViaDrill
T1C0.0157
; #@! TA.AperFunction,Plated,PTH,ComponentDrill
T2C0.0394
%
G90
G05
T1
X5.56Y-3.57
X5.72Y-3.36
X5.73Y-3.55
T2
X5.2Y-2.8287
X5.2Y-2.9287
X5.2Y-3.0287
X5.2Y-3.1287
X5.2Y-3.2287
X5.2Y-3.3287
X5.2Y-3.4287
X5.2Y-3.5287
X5.38Y-2.82
X5.38Y-2.92
X5.38Y-3.02
X5.38Y-3.12
X5.38Y-3.22
X5.48Y-2.82
X5.48Y-2.92
X5.48Y-3.02
X5.48Y-3.12
X5.48Y-3.22
X5.58Y-2.82
X5.58Y-2.92
X5.58Y-3.02
X5.58Y-3.12
X5.58Y-3.22
X5.9717Y-2.8287
X5.9717Y-2.9287
X5.9717Y-3.0287
X5.9717Y-3.1287
X5.9717Y-3.2287
X5.9717Y-3.3287
X5.9717Y-3.4287
X5.9717Y-3.5287
M30
